<?xml version="1.0" encoding="UTF-8"?>
<svg version="1.1" viewBox="0 0 1468 916" width="367" height="229" xmlns="http://www.w3.org/2000/svg">
<path transform="translate(732,186)" d="m0 0 8 1 9 6 4 6 3 15 28 22 16 13 17 13 17 14 6 5 5-2 11-3 11 1 8 4 7 7 4 8 2 11-1 6 6 2 18 11 14 8 10 6 19 11 17 10 10 6 4-1 28-24 11-9 10-9 11-9 12-10 1-4-1-3v-7l3-9 7-8 11-5h10l9 4 7 6 4 8 1 4v8l-3 8-6 8-7 4-13 2-7-2h-6l-10 9-11 9-15 13-14 12-11 9-8 7-2 1 2 5 14 19 13 19 12 16 13 19 12 16 8 12 5 6 10 4 4 5 2 3v8l-5 8-5 4h-7l-8-3-4-5-2-5v-9l-14-20-14-19-13-19-11-15-13-18-12-17-7-9-18-10-17-10-15-9-17-10-14-8-15-9-5 2-7 3v132l10 4 6 3 8 7 7 12 3 14-2 16-4 9 7 8 8 7 5 4v2l4 2 9 9 8 7 5 4 3 4 4-2 9-2 9 1 8 4 6 7 2 5v13l-4 8-5 5-5 3-5 1h-9l-8-3-7-8-3-7-1-9-11-12-10-9-12-11-10-9-8-8-5 1-8 4-8 2h-14l-12-4-9-7-9-11-11 3-34 11-27 8-32 10-14 4-7 13-8 8-9 4-5 1h-11l-12-4-10-9-6-12-1-5v-9l2-6-5-5-18-13-13-9-13-10h-5l-8 6-11 5-8 2h-15l-11-3-5 1-7 10-15 22-20 30v6l2 4-1 6-4 7-7 6-4 2h-9l-8-4-6-8-2-8 1-6 6-9 7-4 10-2 10-14 21-31 12-18-1-4-6-8-6-13-1-4v-18l-12-5-23-11-23-10-28-13-5 2-9 5-9 1-10-3-8-5-6-10-1-3v-12l4-9 5-6 10-5 10-1 8 2 9 6 6 9 2 12 22 11 30 13 21 10 14 5 6-9 7-7 10-6 13-4 10-1 16 3 12 6h2l7-8 52-52-3-10-2-8 3-12 1-5-25-11-22-10-24-11-30-13-5-2-5 1-9 6-11 3h-8l-11-4-8-7-6-10-2-9 1-9 4-10 7-8 7-5 11-3 9 1 8 3 8 6 5 6 5 13v8l45 21 41 18 24 11 2 1h6l8-3 13-1 8-18 7-15 13-28 7-15 6-12v-7l-3-6v-9l3-8 4-5 8-4zm4 41-5 5-8 16-13 27-15 33-6 12 1 4 7 8 7 21 9 7 30 26 13 11 11 10 11 9 12 11 11 9 30 26 7 6 8-1 6-2v-132l-11-6-7-8-2-4-1-6v-14l-13-11-28-22-11-9-18-14-12-10-5-2zm-40 141-6 7-6 4-8 3-9 1-11-2-6-2-8 7-40 40v2l-4 2-9 9 1 5 5 11 3 16-3 16-2 4 1 4 16 10 12 9 14 10 6 4 4 2 8-4 11-3h7l14 5 8 7 4 7 2 5 2 1 51-16 23-7 35-11 4-3 2-15 5-10 3-5-2-4-10-9-8-7-14-12-10-9-11-9-12-11-11-9-15-13-10-9-11-9-10-9-2-3z" fill="#FB944B"/>
<path transform="translate(561,659)" d="m0 0 23 2 13 4 10 4 15 10 6 5 8 10 6 10 6 17 2 13v14l-3 16-8 18-7 9-6 8-16 11-11 5-12 4-19 3-16-1-15-3-18-7-10-8-8-7-9-10-8-16-4-13-2-21 2-11 2-10 8-16 6-9 9-10 10-7 16-8 14-4zm3 31-15 2-14 7-8 7-7 11-4 13-1 12 2 14 5 12 8 10 10 7 11 4 4 1h20l12-4 10-7 9-10 4-8 3-12v-18l-3-11-6-11-10-10-12-6-7-2z" fill="#383838"/>
<path transform="translate(1018,662)" d="m0 0h118l1 1v27l-1 1h-82v34h73l1 5-1 23-72 1v35l84 1 1 1v27l-1 1h-120l-1-6z" fill="#383838"/>
<path transform="translate(389,659)" d="m0 0 24 2 16 5 10 5 13 10 5 4-2 4-10 9-10 10-8-6-8-5-9-4-5-1h-23l-10 3-11 6-3 3h-2l-2 4-6 9-4 13v21l3 10 6 11 7 7 10 6 13 4 13 1 14-2 9-3 1-1 1-46 2-1 32 1v62l-5 5-10 6-16 6-14 3-7 1h-23l-15-3-16-6-10-6-10-9-9-10-6-10-6-15-2-13v-18l3-15 8-18 8-10 6-7 16-11 12-5 14-4z" fill="#383838"/>
<path transform="translate(677,662)" d="m0 0h35l1 86 2 16 4 11 5 7 12 6 6 1h14l11-4 7-6 5-11 2-11 1-95h36v99l-3 16-7 16-9 11-12 9-16 6-10 2h-28l-15-3-12-6-9-7-9-10-7-14-4-16-1-9v-93z" fill="#383838"/>
<path transform="translate(1219,662)" d="m0 0h34l5 8 14 31 18 41 12 26 10 23 12 26-1 2h-37l-4-8-9-24v-2l-74 1-11 28-5 5h-34l1-5 32-72 17-38 15-34 3-7zm16 38-5 10-18 44-1 4h49l-1-5-20-49-2-4z" fill="#383838"/>
<path transform="translate(834,662)" d="m0 0h39l5 10 15 36 14 33 11 26 2 4h2l8-20 9-20 15-35 14-33 1-1h36l-2 6-14 32-15 35-13 30-12 28-10 23-3 3h-34l-7-14-13-30-10-23-14-32-17-40-7-16z" fill="#383838"/>
<path transform="translate(219,660)" d="m0 0h23l16 3 12 5 9 5 14 11 1 2-7 8-14 14-4-1-8-7-12-6-6-2-15-1-12 2-16 8-5 5-5 6-4 8-3 11-1 12 3 15 7 14 8 8 16 8 12 2 15-1 12-4 8-6 7-7 4 2 13 13 7 6-1 3-11 9-13 8-13 5-16 3h-22l-16-3-18-8-10-7-10-9-9-13-5-11-4-13-1-8v-17l3-16 7-16 9-12 6-7 17-12 18-7z" fill="#383838"/>
<path transform="translate(1078,269)" d="m0 0h10l9 4 7 6 4 8 1 4v8l-3 8-6 8-7 4-13 2-7-2h-6l-10 9-11 9-15 13-14 12-11 9-8 7-2 1 2 5 14 19 13 19 12 16 13 19 12 16 8 12 5 6 10 4 4 5 2 3v8l-5 8-5 4h-7l-8-3-4-5-2-5v-9l-14-20-14-19-13-19-11-15-13-18-12-17-3-4v-6l-2-1v-2l-3-1-3-3-7-4v-2h-3v-2l-9-2-4-4v-5l10 3 5 3h5v3l8 3 8-3 28-24 11-9 10-9 11-9 12-10 1-4-1-3v-7l3-9 7-8z" fill="#F56B49"/>
<path transform="translate(386,377)" d="m0 0 10 1 10 6 6 8 2 10 1 4 22 11 30 13 21 10 6 3-3 2h-10l-12-6-8-3h-6l1 3 6 1 5 4 10 5v2l4 2 4 4-6-2-26-12-18-8-26-12-5 2-9 5-9 1-10-3-8-5-6-10-1-3v-12l4-9 5-6 10-5z" fill="#FEB54F"/>
<path transform="translate(490,537)" d="m0 0 2 2v11h9l1-4 6-8 2 1-11 16-18 27v6l2 4-1 6-4 7-7 6-4 2h-9l-8-4-6-8-2-8 1-6 6-9 7-4 10-2 10-14z" fill="#FEB450"/>
<path transform="translate(958,579)" d="m0 0 9 1 3 2v2h3l5 7-1 8h-2l-1 4-3 1-2 6-7 1-5 2-2 1-2-1-1 2-4-2-3-6 1-5 4-2-1-3-3-3 1-5h2l1-5 4-1v-3z" fill="#F56949"/>
<path transform="translate(474,569)" d="m0 0 5 2v3 9l-1 5-2 1-1 6-3 9-5 3h-2v2l-2 1h-6l-2-1v-2h-2l-3-8-1-6 7-14 13-5z" fill="#FB944B"/>
<path transform="translate(852,340)" d="m0 0 2 3 1 61v33l-1 23-2 4z" fill="#F56949"/>
<path transform="translate(500,230)" d="m0 0 9 1 8 3 8 6 5 6 5 13v8l15 7 4 3-6 1v-2h-2v-2h-7v-2h-2v-2l-4-2-3-5-1-8-8-12-4-4-5-3v-2l-4 1v-2h-5z" fill="#FEB54F"/>
<path transform="translate(626,400)" d="m0 0 2 1-30 30-7 6 2-4 9-10 14-14 8-7z" fill="#FFB54F"/>
<path transform="translate(995,381)" d="m0 0 4 4 10 14-3 1-2-2v-4h-2l-2-5-5-1z" fill="#FB954B"/>
<path transform="translate(470,261)" d="m0 0 6 5-1 7-2 3-2-5z" fill="#FFB54F"/>
<path transform="translate(498,486)" d="m0 0h2v2h3l2 9 1 3-3-1-5-10z" fill="#FEB653"/>
<path transform="translate(519,286)" d="m0 0h5l-5 4-9 4-4-1 7-3z" fill="#FFB54F"/>
<path transform="translate(1076,492)" d="m0 0 5 1 6 4 2 5-3-1-4-4-2-1v-2l-4-1z" fill="#FB994B"/>
</svg>
